<?xml version="1.0" standalone="no"?>
<!DOCTYPE svg PUBLIC "-//W3C//DTD SVG 20010904//EN"
 "http://www.w3.org/TR/2001/REC-SVG-20010904/DTD/svg10.dtd">
<svg version="1.0" xmlns="http://www.w3.org/2000/svg"
 width="821.000000pt" height="305.000000pt" viewBox="0 0 821.000000 305.000000"
 preserveAspectRatio="xMidYMid meet">
<metadata>
Created by potrace 1.16, written by Peter Selinger 2001-2019
</metadata>
<g transform="translate(0.000000,305.000000) scale(0.100000,-0.100000)"
fill="#000000" stroke="none">
<path d="M4765 3018 c-16 -18 -42 -62 -59 -98 -25 -54 -31 -80 -34 -157 -3
-51 -6 -93 -9 -93 -2 0 -21 9 -43 20 -47 24 -138 27 -178 6 -64 -34 -102 -96
-102 -169 0 -40 -5 -47 -132 -174 -128 -128 -134 -133 -175 -133 -73 0 -135
-38 -169 -102 -21 -41 -18 -146 6 -186 11 -18 20 -34 20 -36 0 -2 -42 -5 -92
-8 -82 -3 -102 -8 -168 -40 -41 -20 -86 -48 -99 -62 -22 -24 -23 -27 -8 -43
55 -62 194 -113 304 -113 35 0 63 -2 63 -5 0 -2 -9 -19 -20 -37 -24 -40 -27
-145 -6 -186 34 -64 96 -102 169 -102 40 0 47 -5 174 -132 129 -129 133 -134
133 -176 0 -23 6 -57 14 -75 18 -44 78 -95 121 -103 56 -10 133 1 164 24 l28
21 5 -98 c4 -83 10 -108 35 -162 17 -35 45 -80 62 -99 l31 -35 26 30 c63 74
104 193 104 301 l0 54 42 -21 c61 -31 161 -24 213 15 44 34 74 95 75 151 0 38
7 47 133 173 128 127 134 132 174 132 51 0 90 14 122 43 59 55 79 168 41 242
-11 22 -20 41 -20 42 0 2 28 3 63 3 109 0 207 35 291 104 35 29 30 38 -43 85
-73 47 -153 71 -238 71 -40 0 -73 2 -73 3 0 2 8 19 17 38 27 54 29 138 4 187
-31 61 -81 95 -149 100 l-57 4 -132 131 c-126 125 -133 134 -133 172 0 22 -9
59 -19 81 -48 107 -179 135 -302 67 -3 -2 -9 34 -12 79 -3 46 -13 106 -22 133
-17 52 -82 156 -101 162 -6 2 -24 -11 -39 -29z m75 -54 c50 -79 63 -134 58
-242 -4 -84 -8 -105 -35 -157 -17 -33 -40 -68 -51 -79 -21 -18 -21 -18 -52 30
-40 64 -70 162 -70 230 0 79 39 188 88 247 22 25 29 22 62 -29z m-206 -308
c20 -14 48 -48 62 -74 15 -26 38 -64 51 -85 14 -22 23 -40 21 -41 -5 -4 -163
-34 -166 -31 -1 1 3 16 9 34 22 64 -18 131 -79 131 -20 0 -44 -7 -54 -17 -22
-20 -24 -71 -3 -80 23 -8 28 2 13 27 -11 18 -11 23 6 36 46 33 96 -1 96 -65 0
-32 -6 -44 -31 -65 -78 -66 -199 -2 -199 106 1 126 171 203 274 124z m505 20
c15 -8 42 -31 60 -51 26 -30 31 -44 31 -86 0 -90 -45 -139 -130 -139 -84 0
-130 90 -75 145 29 30 56 32 80 5 14 -16 16 -23 7 -32 -16 -16 -15 -28 3 -28
23 0 30 46 11 75 -21 32 -82 35 -117 6 -21 -16 -24 -28 -24 -80 0 -34 -4 -61
-9 -61 -15 0 -141 22 -144 25 -5 4 71 133 99 169 45 57 148 83 208 52z m-753
-253 c22 -21 48 -43 58 -48 17 -10 14 -14 -30 -43 -27 -17 -78 -61 -114 -97
-61 -61 -67 -65 -110 -65 -30 1 -53 7 -69 21 l-25 20 125 125 c68 68 124 124
125 124 1 0 19 -17 40 -37z m1072 -250 c-35 -35 -38 -36 -56 -20 -10 9 -25 17
-32 17 -7 0 -37 27 -67 59 -29 33 -81 78 -114 100 l-60 40 34 14 c18 8 44 28
58 45 l24 30 125 -124 125 -124 -37 -37z m-460 223 c40 -14 96 -38 124 -53 52
-28 188 -147 188 -164 0 -5 -49 -9 -110 -9 l-110 0 0 -65 0 -65 100 0 100 0 0
-35 0 -34 72 -3 72 -3 13 -50 c20 -77 17 -83 -25 -42 l-38 37 -172 0 -172 0 0
130 0 130 -42 0 c-39 0 -48 -6 -110 -67 l-68 -67 0 -90 0 -91 72 -72 72 -73
163 0 163 0 0 -140 0 -140 40 0 c22 0 40 -3 40 -6 0 -17 -68 -100 -129 -156
-77 -71 -181 -129 -276 -153 -75 -19 -262 -20 -332 -1 -152 41 -289 136 -382
266 l-32 45 51 3 50 3 0 135 0 134 115 0 115 0 0 70 0 70 -115 0 -115 0 0 165
c0 158 -1 165 -20 165 -32 0 -24 15 45 78 90 83 229 152 355 176 63 12 226 -3
298 -28z m-934 -202 c12 -5 16 -20 16 -62 0 -44 -3 -53 -12 -44 -17 17 -58 15
-80 -5 -18 -16 -24 -66 -12 -98 8 -19 55 -45 84 -45 18 0 20 -6 20 -65 0 -36
-3 -65 -7 -64 -25 1 -141 80 -167 112 -28 35 -31 46 -31 107 0 82 18 113 85
148 45 22 75 27 104 16z m1559 -8 c92 -39 130 -140 87 -233 -19 -43 -46 -66
-153 -128 -67 -40 -70 -37 -82 62 l-7 62 51 -6 c46 -5 52 -3 80 25 35 35 41
84 14 114 -20 22 -71 24 -80 3 -8 -22 4 -30 22 -15 13 11 19 10 35 -5 11 -10
20 -26 20 -35 0 -28 -32 -59 -67 -66 l-33 -6 0 44 c0 36 -5 50 -30 73 -36 34
-38 54 -7 83 44 41 96 51 150 28z m-1671 -343 c59 -22 123 -66 123 -83 0 -19
-66 -63 -129 -86 -35 -13 -77 -19 -136 -18 -75 0 -94 4 -157 33 -88 41 -112
63 -92 87 18 22 124 74 173 84 56 12 166 4 218 -17z m1969 -2 c59 -23 129 -67
129 -81 0 -14 -70 -58 -129 -81 -109 -41 -235 -32 -334 24 -75 41 -75 73 0
114 96 54 229 63 334 24z m-1841 -195 l0 -64 -36 -6 c-19 -4 -44 -16 -55 -27
-24 -24 -25 -85 -2 -111 16 -18 63 -25 77 -11 6 7 87 5 94 -2 2 -2 -4 -17 -12
-34 -18 -33 -81 -71 -118 -71 -39 1 -104 36 -128 70 -46 65 -37 171 20 225 27
26 135 93 153 94 4 1 7 -28 7 -63z m1503 33 c98 -50 147 -112 147 -189 0 -145
-176 -224 -265 -119 -39 48 -35 103 12 151 43 45 74 48 108 13 30 -29 32 -56
5 -80 -16 -15 -22 -16 -35 -5 -18 15 -30 7 -22 -15 10 -24 63 -19 81 7 34 49
5 120 -54 133 -29 6 -30 8 -30 66 0 32 2 59 5 59 3 0 25 -10 48 -21z m-114
-346 l26 -22 -124 -124 -124 -125 -25 30 c-15 17 -41 37 -60 45 l-34 14 47 30
c69 44 149 123 192 190 l38 58 19 -37 c10 -20 30 -47 45 -59z m-1241 38 c36
-55 157 -173 202 -196 16 -8 30 -18 30 -20 0 -3 -18 -14 -40 -25 -23 -12 -46
-32 -52 -45 -6 -14 -14 -25 -17 -25 -4 0 -62 56 -130 124 l-124 124 37 32 c20
18 39 43 42 56 3 13 9 24 13 24 4 0 22 -22 39 -49z m334 -278 c35 -38 42 -66
24 -101 -23 -44 -71 -57 -97 -26 -10 13 -10 19 0 36 14 23 9 33 -14 25 -20 -8
-19 -56 2 -79 24 -26 84 -24 111 5 27 29 36 70 24 107 -9 25 -8 30 5 30 18 0
146 -21 151 -25 3 -3 -58 -108 -93 -158 -46 -68 -147 -96 -222 -61 -75 36
-114 135 -79 203 37 71 140 95 188 44z m620 7 c35 -27 61 -95 53 -137 -7 -38
-55 -97 -96 -119 -59 -30 -154 -9 -205 48 -12 12 -32 43 -44 68 -13 25 -32 58
-42 73 -11 16 -19 30 -17 31 4 4 130 26 145 26 5 0 10 -27 9 -61 0 -52 3 -63
24 -80 59 -48 150 -1 125 65 -3 9 -12 16 -20 16 -17 0 -18 -12 -2 -28 10 -10
7 -17 -10 -34 -18 -18 -26 -20 -49 -12 -58 20 -68 90 -18 140 32 32 110 34
147 4z m-345 -98 c50 -77 65 -137 61 -244 -3 -98 -28 -172 -77 -228 l-21 -25
-29 34 c-79 90 -101 278 -48 394 28 62 64 117 75 117 4 0 22 -22 39 -48z"/>
<path d="M4370 2100 l0 -70 65 0 65 0 0 -50 0 -50 120 0 120 0 0 120 0 120
-185 0 -185 0 0 -70z"/>
<path d="M4820 1611 c0 -34 9 -50 61 -110 l61 -71 149 0 149 0 0 65 0 65 -90
0 -90 0 0 45 0 45 -120 0 -120 0 0 -39z"/>
<path d="M158 2673 c-2 -170 -1 -336 0 -370 l4 -63 119 0 119 0 0 135 0 135
115 0 115 0 0 70 0 70 -115 0 -115 0 0 165 0 165 -120 0 -119 0 -3 -307z"/>
<path d="M450 2910 l0 -70 65 0 65 0 0 -50 0 -50 120 0 120 0 0 120 0 120
-185 0 -185 0 0 -70z"/>
<path d="M2165 2894 c-16 -7 -42 -13 -57 -14 l-28 0 0 -75 0 -75 -30 0 c-23 0
-30 -4 -30 -20 0 -16 7 -20 30 -20 l30 0 0 -179 c0 -103 5 -192 11 -208 17
-46 49 -71 104 -84 43 -9 61 -9 107 5 54 15 98 49 80 60 -5 3 -26 -4 -48 -14
-48 -25 -75 -25 -105 -1 -24 19 -24 23 -27 220 l-3 201 85 0 c79 0 86 2 86 20
0 18 -7 20 -85 20 l-84 0 -3 88 -3 89 -30 -13z"/>
<path d="M896 2715 c-56 -20 -96 -62 -96 -101 0 -59 67 -84 108 -41 27 29 28
47 2 79 l-19 25 25 12 c44 20 110 14 141 -13 26 -23 28 -29 31 -120 2 -53 2
-96 0 -96 -3 0 -19 7 -36 15 -79 40 -188 27 -250 -30 -33 -30 -37 -39 -37 -83
0 -59 23 -96 77 -124 74 -39 149 -36 213 8 l38 25 26 -25 c34 -33 116 -37 151
-8 28 22 19 48 -9 30 -10 -6 -26 -8 -35 -5 -14 6 -16 28 -16 172 0 177 -7 212
-51 251 -13 12 -39 26 -58 33 -46 15 -157 13 -205 -4z m162 -275 c32 -20 33
-22 30 -77 -3 -53 -6 -59 -37 -80 -41 -28 -100 -30 -131 -5 -16 13 -24 32 -28
70 -4 47 -2 54 26 82 37 36 90 40 140 10z"/>
<path d="M1340 2710 c0 -17 7 -20 40 -20 l40 0 0 -215 0 -215 -40 0 c-33 0
-40 -3 -40 -20 0 -19 7 -20 145 -20 138 0 145 1 145 20 0 17 -7 20 -45 20
l-45 0 2 183 3 182 49 33 c61 41 121 44 154 9 21 -22 22 -32 22 -215 l0 -192
-45 0 c-38 0 -45 -3 -45 -20 0 -19 7 -20 150 -20 143 0 150 1 150 20 0 17 -7
20 -39 20 l-40 0 -3 184 c-3 168 -5 187 -24 212 -35 48 -70 67 -128 72 -73 6
-116 -3 -160 -33 -20 -14 -39 -25 -41 -25 -3 0 -5 14 -5 30 l0 30 -100 0 c-93
0 -100 -1 -100 -20z"/>
<path d="M2585 2715 c-47 -17 -95 -66 -95 -98 0 -29 39 -67 68 -67 29 0 62 34
62 63 0 13 -9 32 -20 42 l-21 19 23 13 c13 7 45 12 71 13 41 0 53 -5 78 -29
28 -28 29 -33 29 -120 0 -50 -2 -91 -3 -91 -2 0 -17 7 -34 15 -81 40 -208 22
-257 -36 -32 -38 -36 -108 -7 -155 50 -82 221 -96 286 -24 17 19 18 19 45 -10
24 -26 35 -30 78 -30 57 0 106 29 86 50 -8 8 -14 9 -18 1 -13 -20 -45 -12 -51
12 -2 12 -6 97 -7 189 l-3 167 -35 36 c-19 19 -50 40 -70 45 -50 14 -158 12
-205 -5z m163 -275 c30 -18 32 -23 32 -74 0 -48 -3 -57 -31 -80 -46 -39 -108
-37 -143 5 -80 94 34 215 142 149z"/>
<path d="M3164 2711 c-58 -27 -84 -63 -84 -121 0 -85 47 -130 193 -186 38 -15
81 -37 95 -49 23 -20 25 -27 17 -51 -27 -77 -180 -69 -244 12 -12 15 -21 33
-21 40 0 8 -11 14 -25 14 -24 0 -25 -2 -25 -75 0 -72 1 -75 24 -75 15 0 26 7
29 21 l5 20 40 -20 c61 -31 111 -36 177 -16 182 52 163 225 -32 299 -102 39
-137 65 -141 103 -2 24 3 36 24 52 54 43 154 17 192 -49 9 -16 25 -30 35 -30
14 0 17 10 17 65 0 68 -8 79 -41 49 -16 -14 -20 -14 -48 0 -41 22 -136 20
-187 -3z"/>
<path d="M3520 2710 c0 -14 7 -20 23 -20 21 0 37 -27 136 -232 61 -128 111
-241 111 -252 0 -28 -74 -178 -98 -200 l-22 -19 0 34 c0 19 -5 40 -12 47 -19
19 -66 14 -88 -8 -46 -46 -3 -110 73 -110 83 0 118 55 267 420 139 339 129
320 156 320 17 0 24 6 24 20 0 19 -7 20 -90 20 -82 0 -90 -2 -90 -19 0 -16 8
-20 44 -23 l43 -3 -64 -162 c-60 -150 -83 -191 -83 -145 0 10 -5 23 -10 28 -6
6 -37 71 -70 145 l-59 134 35 3 c26 2 34 8 34 23 0 18 -8 19 -130 19 -123 0
-130 -1 -130 -20z"/>
<path d="M6180 1285 c0 -11 11 -15 40 -15 l40 0 0 -380 0 -380 -40 0 c-33 0
-40 -3 -40 -20 0 -19 7 -20 145 -20 138 0 145 1 145 20 0 17 -7 20 -40 20
l-40 0 2 181 3 182 37 30 c52 41 133 50 163 17 18 -20 20 -39 23 -216 l3 -194
-40 0 c-34 0 -41 -3 -41 -20 0 -19 7 -20 140 -20 133 0 140 1 140 20 0 17 -7
20 -40 20 l-40 0 1 175 c1 155 -1 179 -18 212 -44 86 -170 110 -277 54 l-56
-30 0 190 0 189 -105 0 c-87 0 -105 -3 -105 -15z"/>
<path d="M5447 1142 l-67 -68 0 -89 0 -90 72 -72 72 -73 163 0 163 0 0 -140 0
-140 70 0 c64 0 70 2 70 21 0 11 23 44 50 73 l50 53 0 81 c0 44 -4 92 -10 106
-5 14 -38 53 -72 86 l-63 60 -172 0 -173 0 0 130 0 130 -43 0 c-39 0 -48 -5
-110 -68z"/>
<path d="M5650 1145 l0 -65 100 0 100 0 0 -35 0 -35 110 0 110 0 0 38 c0 33
-8 45 -63 100 l-63 62 -147 0 -147 0 0 -65z"/>
<path d="M7026 965 c-54 -19 -122 -89 -141 -144 -19 -56 -19 -136 0 -190 23
-66 62 -108 131 -142 58 -29 70 -31 125 -25 80 8 136 34 181 84 46 51 61 106
56 202 -6 106 -44 164 -133 206 -58 28 -156 32 -219 9z m181 -49 c31 -37 43
-88 43 -191 0 -153 -30 -213 -110 -222 -81 -9 -128 50 -137 172 -14 185 37
284 142 271 27 -3 47 -13 62 -30z"/>
<path d="M7450 960 c0 -17 7 -20 40 -20 l40 0 0 -355 0 -355 -35 0 c-24 0 -35
-5 -35 -15 0 -13 22 -15 140 -15 118 0 140 2 140 15 0 11 -12 15 -45 15 l-45
0 0 141 c0 77 3 139 8 137 116 -60 204 -60 295 0 61 40 90 100 95 196 2 45 -1
100 -7 124 -14 51 -67 113 -118 137 -51 24 -176 17 -227 -13 -46 -27 -46 -27
-46 3 l0 25 -100 0 c-93 0 -100 -1 -100 -20z m418 -55 c17 -19 36 -51 41 -72
14 -49 14 -177 1 -225 -31 -109 -130 -138 -232 -66 l-28 19 0 153 0 152 28 26
c41 38 63 47 113 48 41 0 51 -4 77 -35z"/>
<path d="M5380 651 c0 -34 9 -50 61 -110 l61 -71 149 0 149 0 0 65 0 65 -90 0
-90 0 0 45 0 45 -120 0 -120 0 0 -39z"/>
</g>
</svg>
